<?xml version="1.0" standalone="no"?>
<!DOCTYPE svg PUBLIC "-//W3C//DTD SVG 20010904//EN"
 "http://www.w3.org/TR/2001/REC-SVG-20010904/DTD/svg10.dtd">
<svg version="1.0" xmlns="http://www.w3.org/2000/svg"
 width="1140.000000pt" height="1140.000000pt" viewBox="0 0 1140.000000 1140.000000"
 preserveAspectRatio="xMidYMid meet">
<metadata>
Created by potrace 1.11, written by Peter Selinger 2001-2013
</metadata>
<g transform="translate(0.000000,1140.000000) scale(0.100000,-0.100000)"
fill="#000000" stroke="none">
<path d="M399 11376 l23 -24 -44 -26 -43 -26 51 0 c82 0 103 -36 115 -201 14
-185 56 -269 134 -269 37 0 48 10 64 61 20 62 70 99 273 202 177 90 203 100
313 123 135 27 166 29 183 12 15 -15 16 -142 1 -370 -11 -179 -8 -218 16 -218
8 0 137 41 288 90 150 50 279 90 285 90 17 0 15 -35 -2 -49 -8 -7 -31 -15 -52
-18 -21 -3 -53 -17 -72 -30 -27 -17 -49 -23 -92 -23 -104 0 -96 -15 67 -131
81 -57 170 -125 197 -150 l51 -47 3 -146 c2 -80 1 -146 -4 -146 -4 0 -36 16
-70 35 -72 40 -75 27 -9 -29 50 -41 78 -87 73 -117 -3 -17 -27 -5 -173 89
-198 128 -242 152 -272 152 -12 0 -106 -30 -210 -66 -229 -80 -226 -80 -255
-60 -33 24 -46 20 -62 -17 -13 -32 -22 -37 -147 -80 -445 -151 -949 -331 -949
-338 0 -4 56 -56 124 -116 l124 -108 -21 -24 c-12 -13 -17 -21 -10 -17 12 6
54 -47 87 -112 9 -17 23 -78 32 -135 23 -156 33 -186 77 -234 32 -34 46 -43
73 -43 29 0 38 6 62 42 45 68 89 106 170 144 42 20 92 49 110 65 52 46 87 59
226 86 99 18 146 33 194 59 110 60 102 84 102 -296 0 -181 3 -330 6 -330 12 0
430 133 507 161 53 20 97 29 136 29 60 0 69 5 99 59 8 13 10 27 5 32 -4 4
-109 -23 -233 -61 -123 -39 -228 -66 -232 -62 -8 8 286 125 472 189 135 47
154 26 165 -187 9 -179 23 -232 104 -380 62 -112 151 -285 151 -292 0 -2 -25
-3 -56 -3 -48 0 -59 -4 -79 -27 -13 -15 -26 -45 -30 -68 -7 -40 -7 -41 -43
-34 l-37 7 20 -24 c54 -66 70 -69 166 -38 104 35 99 23 99 241 0 119 4 188 10
188 6 0 10 -65 10 -174 0 -147 3 -177 16 -191 9 -8 24 -14 33 -11 9 3 165 50
346 105 336 103 370 118 362 161 -4 19 6 22 -316 -71 -152 -44 -285 -82 -296
-85 -11 -3 2 10 29 30 27 20 55 36 61 36 6 0 35 7 63 15 62 19 119 65 131 109
9 29 9 29 10 -18 1 -34 5 -47 14 -43 6 2 71 21 142 42 83 23 136 44 148 57 15
18 17 47 17 272 0 275 1 280 61 311 16 9 35 31 43 49 19 45 33 51 141 65 54 7
136 28 205 53 63 22 143 48 177 57 l63 16 0 120 c0 141 7 157 74 174 29 7 50
19 57 33 9 16 10 137 5 472 -7 471 -11 556 -29 556 -13 0 -399 -141 -409 -149
-6 -5 120 -99 320 -242 63 -44 72 -74 72 -239 0 -91 -4 -140 -10 -140 -6 0
-24 7 -40 15 -39 20 -38 6 5 -45 25 -30 35 -52 35 -76 l0 -35 -87 62 c-49 33
-114 78 -146 98 -32 20 -81 53 -109 74 -34 25 -61 37 -82 37 -18 0 -156 -40
-307 -89 -151 -49 -348 -112 -439 -140 -91 -29 -205 -68 -255 -88 -74 -30
-105 -37 -174 -39 -73 -3 -87 -6 -110 -27 -14 -14 -37 -30 -50 -37 -31 -16
-401 -140 -417 -140 -9 0 -9 11 -2 43 6 25 8 120 4 237 -4 107 -3 200 1 206 5
6 25 14 46 18 38 7 99 52 119 90 9 15 11 152 9 516 -2 272 -4 496 -6 498 -2 2
-86 -23 -187 -56 -100 -33 -193 -62 -205 -66 -13 -4 -23 -3 -23 2 0 5 57 31
128 57 132 49 196 81 295 148 61 41 113 51 140 29 15 -12 39 -148 52 -297 9
-93 46 -208 106 -327 27 -54 49 -106 49 -115 0 -10 -24 -61 -53 -113 -44 -79
-56 -95 -75 -93 -12 2 -22 -1 -22 -5 0 -17 40 -71 57 -76 20 -6 180 37 196 53
5 5 9 75 8 155 -1 93 2 146 8 146 6 0 12 -51 13 -131 3 -113 6 -133 21 -143
14 -9 82 11 343 98 312 104 387 137 371 163 -7 11 -33 3 -449 -131 -114 -36
-168 -50 -168 -41 0 8 118 53 300 115 205 70 304 109 310 121 6 10 10 111 10
226 0 248 9 315 46 354 28 29 146 80 274 119 94 28 137 50 174 89 24 25 38 31
72 31 27 0 51 7 68 21 24 19 26 27 26 90 l0 69 -942 -3 -943 -3 -70 -26 c-38
-15 -73 -25 -77 -22 -4 3 -3 16 2 29 l10 25 -842 0 -841 0 22 -24z m1866 -256
c16 -16 27 -31 24 -33 -18 -15 -55 -37 -61 -37 -5 0 -8 23 -8 50 0 28 4 50 8
50 5 0 21 -13 37 -30z m-23 -2035 l29 -25 -27 -10 c-15 -6 -31 -13 -35 -16 -5
-3 -9 13 -9 35 0 23 3 41 6 41 3 0 19 -11 36 -25z"/>
<path d="M4710 11255 c-358 -125 -608 -214 -618 -220 -1 -1 42 -46 97 -101 72
-72 101 -108 106 -133 8 -38 -8 -57 -55 -67 -61 -12 -75 -27 -75 -80 0 -60 -5
-69 -57 -95 -49 -25 -44 -34 16 -25 60 9 106 53 106 102 0 47 29 74 81 74 46
0 74 -12 88 -39 6 -10 20 -81 31 -157 27 -177 35 -206 67 -244 35 -42 98 -74
122 -61 19 10 73 70 105 116 21 31 88 64 129 65 25 0 27 3 27 40 0 33 4 40 23
45 12 3 54 12 92 21 78 17 290 80 404 119 93 31 119 32 130 3 4 -13 14 -165
21 -338 6 -173 13 -315 13 -316 1 0 173 55 382 123 209 67 381 123 383 123 1
0 2 -15 2 -33 l0 -32 -152 -54 c-84 -30 -155 -56 -157 -58 -10 -7 52 -61 217
-189 94 -74 178 -145 186 -157 16 -24 35 -327 21 -327 -4 0 -37 18 -72 41 -36
22 -67 38 -70 36 -2 -3 21 -26 51 -53 53 -46 96 -111 96 -147 0 -13 -5 -15
-25 -7 -27 10 -140 90 -225 159 -76 61 -132 84 -205 85 -50 0 -117 -20 -395
-112 -184 -61 -542 -177 -795 -258 -253 -81 -509 -162 -569 -182 l-110 -35 55
-51 c152 -142 189 -178 189 -181 0 -2 -30 -14 -67 -27 l-68 -23 98 -3 c88 -2
98 -5 111 -25 12 -19 18 -64 41 -285 3 -23 14 -61 26 -85 20 -40 115 -147 131
-147 4 0 47 28 95 63 395 284 391 281 507 279 45 -1 118 7 175 19 153 32 165
33 180 15 16 -19 29 -184 39 -481 l7 -200 385 111 c212 61 388 109 392 105 4
-3 9 -17 13 -31 6 -24 1 -28 -47 -48 -55 -22 -1196 -365 -1558 -468 -157 -45
-211 -64 -235 -85 l-30 -27 26 -7 c18 -4 192 44 590 164 780 235 872 261 906
261 16 0 50 -13 76 -30 95 -60 368 -263 377 -281 6 -10 17 -82 25 -161 8 -79
17 -160 20 -180 l5 -38 -67 41 c-38 23 -72 44 -78 47 -5 3 20 -26 57 -66 51
-54 69 -81 76 -114 5 -24 8 -44 6 -46 -2 -4 -32 14 -249 154 -88 56 -176 105
-195 109 -25 4 -69 -4 -155 -29 -404 -117 -1792 -529 -1803 -535 -10 -6 20
-35 100 -101 62 -51 119 -99 127 -106 11 -10 -1 -16 -68 -30 -52 -11 -81 -22
-81 -31 0 -17 16 -16 101 3 78 18 113 13 129 -16 6 -11 17 -70 25 -132 20
-157 32 -200 78 -302 39 -85 42 -88 55 -67 l15 22 18 -31 c10 -16 23 -30 28
-30 16 0 220 139 243 166 41 47 181 98 490 179 200 52 232 55 252 23 17 -28
36 -339 36 -580 0 -95 4 -168 9 -168 19 0 234 53 514 126 166 44 298 73 311
70 24 -6 51 -51 37 -60 -30 -19 -986 -280 -1539 -420 -206 -52 -385 -102 -399
-111 -24 -16 -25 -20 -18 -73 4 -32 9 -59 11 -61 4 -4 197 46 1003 261 388
103 571 148 589 143 14 -3 43 -22 64 -40 24 -22 62 -42 106 -55 56 -17 75 -28
95 -56 13 -19 53 -54 88 -77 90 -60 109 -99 110 -231 0 -56 3 -133 7 -173 l8
-72 -41 23 c-22 13 -92 54 -155 91 -140 82 -118 51 38 -52 62 -42 121 -87 130
-102 17 -24 52 -108 52 -124 0 -12 -33 5 -200 103 -191 113 -234 135 -276 144
-23 5 -157 -26 -515 -118 -266 -68 -650 -167 -854 -220 -476 -122 -685 -179
-685 -187 0 -4 50 -44 110 -89 61 -45 110 -84 110 -86 0 -2 -19 -13 -42 -25
-52 -26 -37 -39 45 -39 53 0 62 -3 92 -33 20 -20 35 -47 39 -68 2 -19 14 -99
26 -179 12 -79 29 -158 37 -175 33 -64 82 -113 130 -129 82 -28 113 -18 113
38 0 44 10 54 66 71 40 12 52 20 61 45 10 27 15 30 55 30 31 0 39 -3 28 -10
-13 -8 -12 -10 3 -10 28 0 221 47 258 64 31 13 197 36 385 52 68 6 73 5 87
-17 22 -34 37 -245 37 -515 l0 -222 121 39 c66 22 128 37 138 34 15 -5 200 33
564 115 123 28 127 27 127 -14 0 -44 -12 -52 -96 -70 -38 -8 -337 -81 -664
-161 -723 -178 -879 -214 -1085 -255 -239 -46 -234 -43 -241 -172 -6 -87 3
-108 41 -108 48 0 750 158 1315 297 279 68 313 68 421 2 40 -24 133 -80 208
-124 127 -75 137 -83 148 -120 15 -49 42 -415 31 -415 -5 0 -54 23 -109 51
-56 27 -98 45 -94 39 4 -6 45 -36 91 -66 49 -32 92 -70 105 -90 21 -34 39
-124 25 -124 -4 0 -98 48 -209 108 -241 129 -249 132 -290 132 -18 0 -131 -23
-252 -51 -121 -27 -569 -129 -995 -225 -892 -201 -863 -194 -873 -204 -7 -6
31 -41 77 -72 6 -4 6 -11 -2 -21 -6 -7 -21 -42 -31 -78 -24 -76 -67 -131 -121
-155 -64 -28 -49 -37 50 -30 l90 8 0 -30 c0 -16 -8 -36 -17 -44 -11 -10 -238
-65 -571 -139 -541 -120 -555 -122 -610 -111 -56 12 -57 12 -107 -22 -52 -35
-135 -57 -469 -121 -184 -35 -176 -27 -176 -189 l0 -134 38 9 c20 4 287 60
592 124 305 64 614 130 685 146 87 21 145 29 175 25 26 -2 95 -29 160 -60 63
-31 117 -56 120 -56 3 0 17 44 30 97 21 84 26 94 31 68 4 -16 7 -60 8 -97 1
-85 15 -114 58 -129 43 -14 92 -55 106 -88 5 -14 13 -91 17 -171 8 -160 13
-180 42 -180 20 0 20 4 14 298 -4 163 -11 431 -16 595 -9 280 -8 317 15 345 8
9 149 -54 161 -72 8 -13 19 -83 28 -173 15 -160 34 -223 80 -273 61 -66 96
-122 96 -156 0 -44 27 -58 49 -25 8 12 38 38 67 56 29 18 77 58 107 88 30 30
70 60 91 67 36 12 46 25 25 32 -15 5 184 57 373 98 140 30 154 32 260 24 103
-8 113 -11 111 -28 -1 -11 8 -37 18 -59 17 -33 24 -92 45 -380 14 -188 27
-353 30 -366 5 -22 8 -23 57 -17 28 4 199 36 380 72 181 35 334 61 340 57 7
-3 20 -13 29 -21 16 -14 17 -16 1 -43 -9 -16 -24 -31 -32 -35 -9 -3 -97 -23
-196 -44 l-180 -38 335 -1 335 -1 -14 156 c-12 129 -12 157 -1 164 16 10 193
-148 216 -192 8 -15 14 -50 14 -78 l0 -50 1281 0 1282 0 -6 45 c-4 25 -10 87
-13 140 -7 94 -7 95 20 120 16 14 26 32 23 39 -3 7 -17 124 -32 260 -25 222
-26 249 -12 269 14 21 13 26 -3 53 -22 34 -41 157 -104 689 -70 586 -84 739
-68 743 16 4 50 -19 155 -105 82 -67 77 -57 117 -223 29 -114 72 -216 130
-303 77 -114 82 -119 113 -112 22 6 27 13 27 38 0 23 11 40 48 74 60 56 91 73
153 80 57 7 70 32 17 34 -29 1 -25 4 30 22 69 23 79 36 30 38 -18 1 -1 5 37
10 104 13 116 17 151 55 31 32 42 36 199 69 190 40 192 40 176 21 -9 -11 9
-14 104 -20 103 -6 120 -5 158 13 23 11 52 29 65 40 l22 19 0 456 c0 251 -4
456 -8 456 -6 0 -500 -106 -1607 -345 -192 -42 -211 -43 -219 -12 -10 39 -6
92 9 113 17 26 43 36 160 68 195 52 176 58 -35 11 -93 -21 -156 -31 -160 -25
-3 5 -16 112 -28 237 l-23 227 21 29 22 28 -18 216 -17 216 22 18 c21 17 21
18 1 24 -24 8 -25 13 -40 185 -25 301 -91 893 -110 985 -27 130 -27 131 15
138 55 9 101 -10 155 -64 54 -54 78 -114 100 -255 15 -96 53 -169 126 -247
l62 -65 71 34 c39 18 88 51 108 72 46 47 204 128 296 152 42 11 80 29 101 48
27 24 59 36 163 60 70 17 148 33 173 37 43 6 44 5 20 -9 -36 -22 -13 -20 128
11 90 20 125 24 130 16 4 -7 40 -198 80 -425 41 -227 76 -416 80 -420 9 -9 92
10 110 25 21 17 10 106 -38 327 -23 102 -44 197 -47 213 -3 16 -1 27 5 27 6 0
20 -40 31 -90 12 -49 30 -130 42 -179 l20 -89 47 12 47 12 3 818 c2 776 1 817
-15 812 -10 -3 -218 -55 -463 -116 -245 -60 -699 -175 -1010 -256 -311 -80
-578 -148 -594 -151 -37 -7 -56 16 -56 67 0 49 31 82 104 109 31 11 61 21 66
21 5 0 11 4 14 9 4 5 -20 3 -51 -5 -32 -8 -76 -17 -99 -20 l-41 -6 -13 163
c-10 124 -10 196 -2 303 7 92 7 180 2 251 -23 276 -102 1024 -121 1147 -12 75
-18 149 -15 164 7 25 9 26 65 22 75 -5 148 -48 157 -93 46 -229 77 -315 173
-477 75 -127 76 -127 77 -68 1 27 6 56 13 63 6 8 52 36 102 62 135 72 221 135
241 175 27 53 144 109 268 126 52 8 117 14 143 14 33 0 66 9 107 30 48 24 72
30 124 30 119 0 123 -6 157 -195 11 -66 39 -203 61 -305 41 -190 41 -196 11
-269 -5 -11 4 -13 46 -7 107 14 114 24 86 119 -18 61 -65 360 -59 367 10 9 20
-21 53 -154 18 -76 38 -136 45 -136 6 0 34 9 61 19 42 16 150 46 328 92 l37
10 0 754 0 754 -52 36 c-29 19 -65 35 -81 35 -15 0 -155 -36 -310 -81 -503
-144 -1275 -368 -1577 -459 -162 -49 -312 -92 -332 -95 -44 -8 -43 -10 -27 83
10 55 9 69 -4 91 -19 32 -42 282 -33 366 17 175 17 310 2 495 -24 277 -85 857
-95 910 -5 24 -7 48 -5 52 3 4 21 8 41 8 26 0 52 -12 98 -45 72 -51 82 -71
115 -244 24 -124 42 -160 113 -230 l55 -54 34 20 c18 11 59 30 92 43 73 29
111 61 126 104 10 31 15 34 62 40 68 9 75 15 47 37 -21 16 -22 18 -4 14 11 -2
35 -6 54 -9 33 -6 34 -6 17 13 -17 18 -14 20 81 57 54 20 143 54 197 76 55 21
101 36 104 34 2 -2 -1 -13 -7 -24 -16 -31 -15 -31 42 -17 37 10 60 24 80 47
25 30 33 33 85 33 52 0 57 2 60 23 10 71 32 -15 87 -349 42 -250 64 -364 73
-363 7 1 24 2 38 3 16 0 40 15 59 35 30 32 33 33 49 18 19 -19 -20 -28 426
101 l285 83 3 47 c2 26 -1 47 -5 47 -5 0 -130 -36 -278 -81 -268 -80 -365
-102 -365 -82 0 14 116 56 285 103 77 21 190 56 250 77 l110 38 2 765 c2 554
-1 800 -10 890 l-12 125 -85 3 -84 3 66 -69 c45 -46 70 -81 77 -108 10 -37 31
-236 31 -298 0 -32 7 -35 -87 34 l-48 35 31 -40 c18 -22 42 -49 54 -60 12 -11
28 -31 35 -45 14 -29 27 -90 19 -90 -8 0 -75 56 -237 197 -89 78 -139 114
-162 119 -35 6 -168 -35 -1520 -476 -352 -115 -656 -213 -675 -218 l-35 -8 0
-155 0 -154 -43 -87 c-43 -88 -52 -98 -127 -144 l-40 -25 93 6 94 7 -17 -26
c-13 -19 -52 -39 -152 -78 -119 -46 -132 -53 -107 -60 15 -4 46 -25 68 -46 23
-21 114 -99 204 -172 93 -76 164 -142 167 -154 11 -52 33 -322 27 -328 -4 -4
-62 33 -129 82 -67 50 -126 90 -130 90 -13 0 53 -63 128 -121 82 -64 121 -113
138 -174 6 -22 9 -40 8 -41 -1 -2 -81 57 -177 131 -184 140 -228 163 -297 152
-21 -4 -148 -41 -283 -83 -556 -173 -1686 -514 -1703 -514 -16 0 -17 6 -12 44
4 25 0 84 -8 137 -9 52 -18 147 -22 213 -7 137 1 161 61 172 l36 7 -5 146 c-3
80 -12 207 -21 281 -22 194 -35 384 -42 622 -4 115 -10 208 -13 208 -3 0 -143
-43 -311 -95 -194 -60 -308 -91 -314 -85 -6 6 -4 11 5 14 8 3 84 30 169 60
172 60 265 96 416 162 184 80 219 60 250 -146 7 -52 14 -122 14 -156 0 -78 26
-153 90 -259 28 -46 56 -101 64 -122 20 -56 29 -152 21 -218 -7 -49 -12 -59
-39 -76 -17 -11 -48 -22 -68 -25 -21 -4 -38 -9 -38 -13 0 -3 15 -27 33 -54 32
-48 32 -48 76 -43 24 3 69 17 99 31 l55 25 -6 78 c-14 173 -19 287 -13 281 3
-3 11 -52 16 -110 10 -101 30 -189 49 -218 8 -13 43 -4 218 51 173 56 470 145
624 188 42 11 50 25 38 58 -13 33 -33 36 -91 13 -75 -29 -662 -201 -684 -200
-24 0 97 57 214 100 119 45 125 50 124 141 l0 73 15 -82 c12 -63 20 -83 32
-83 9 1 90 24 181 53 145 46 166 56 178 79 10 22 10 74 1 275 -7 137 -9 265
-5 285 9 49 59 92 127 108 30 7 72 23 94 36 40 22 464 134 511 134 18 0 30 -9
42 -31 28 -51 52 -79 84 -95 33 -17 38 -14 74 52 16 30 16 32 -4 60 -18 25
-22 49 -28 196 l-7 167 29 24 c34 29 34 36 11 272 -9 94 -17 173 -17 178 0 4
-13 7 -30 7 -35 0 -37 -10 -19 -103 5 -32 7 -62 4 -67 -4 -6 -32 8 -66 30 -32
23 -59 39 -59 36 0 -2 21 -28 46 -58 46 -53 88 -130 82 -149 -4 -13 -177 111
-270 193 -83 72 -112 88 -163 87 -25 0 -402 -121 -995 -318 -948 -316 -955
-318 -963 -295 -5 12 -4 38 1 56 7 25 4 52 -9 103 -11 39 -22 126 -25 196 l-7
126 44 24 c43 24 44 25 47 81 l3 57 -638 0 -638 0 -415 -144z m1790 -717 c16
-29 30 -60 30 -68 0 -14 -47 -50 -64 -50 -3 0 -6 38 -6 85 0 47 2 85 5 85 2 0
18 -24 35 -52z m2410 -361 c13 -83 1 -120 -28 -84 -12 15 -26 162 -17 177 12
20 34 -24 45 -93z m1714 -695 c18 -103 20 -130 10 -121 -22 18 -43 107 -44
184 -2 125 2 117 34 -63z m-4015 -1201 c33 -62 32 -64 -10 -74 -25 -6 -26 -5
-33 46 -13 108 -3 114 43 28z m-267 -149 c9 -2 66 4 127 12 159 23 197 21 237
-9 50 -38 73 -97 84 -218 16 -170 71 -299 187 -441 62 -76 76 -85 101 -63 10
9 21 17 24 17 3 0 17 -26 31 -57 23 -52 26 -70 25 -173 -1 -112 7 -180 20
-180 4 0 210 56 457 123 l450 123 -2 48 c-1 26 -3 49 -5 51 -2 2 -187 -47
-411 -107 -295 -80 -411 -108 -419 -100 -13 13 -20 10 197 89 83 30 158 62
168 70 14 13 17 34 18 117 l1 101 17 -107 c10 -60 20 -111 24 -114 6 -6 333
80 374 99 30 14 32 32 17 159 -21 181 -28 377 -15 425 15 53 49 73 125 73 43
0 60 5 84 25 20 17 72 36 168 60 77 20 172 45 213 56 84 21 110 18 165 -22 22
-16 49 -29 60 -29 12 0 26 -4 32 -8 19 -12 35 -86 38 -177 2 -71 6 -87 23
-102 20 -17 21 -24 15 -115 -6 -76 -12 -103 -29 -126 -14 -19 -18 -33 -12 -43
14 -23 12 -25 -65 -65 -77 -40 -81 -54 -18 -54 20 0 32 -5 32 -14 0 -25 -40
-64 -83 -80 -23 -8 -274 -79 -557 -156 -283 -78 -651 -179 -817 -226 -289 -80
-342 -91 -377 -78 -24 9 -20 18 29 79 45 55 45 55 31 90 -8 19 -17 35 -19 35
-17 0 -97 -43 -113 -61 -25 -28 -72 -52 -90 -45 -28 11 -13 -5 41 -40 30 -20
55 -38 55 -40 0 -2 -9 -28 -21 -58 -15 -42 -18 -60 -10 -75 17 -32 43 -33 137
-5 319 92 1495 417 1549 427 17 4 42 1 57 -6 15 -7 117 -79 227 -162 152 -114
202 -157 210 -180 5 -16 15 -86 20 -155 6 -69 14 -147 17 -175 5 -41 4 -48 -7
-39 -8 6 -41 25 -74 43 l-60 33 53 -49 c69 -63 92 -99 92 -145 0 -21 -3 -38
-6 -38 -12 0 -199 127 -244 165 -76 64 -142 89 -240 89 -74 0 -105 -6 -240
-47 -85 -26 -308 -88 -495 -137 -187 -49 -549 -147 -805 -219 -256 -71 -481
-132 -500 -136 l-36 -6 -27 258 c-16 142 -31 275 -34 296 -5 34 -4 37 19 37
14 0 38 10 53 22 l28 21 -7 122 c-6 97 -4 130 7 158 13 31 13 38 1 56 -11 15
-18 104 -29 388 -9 223 -22 403 -31 458 -9 50 -14 123 -13 163 3 51 1 72 -8
72 -7 0 -155 -40 -329 -90 -174 -49 -319 -90 -321 -90 -1 0 -3 6 -3 14 0 10
63 35 193 78 l192 65 4 94 4 94 11 -70 c8 -51 16 -71 28 -73z m-455 -2244 c-3
-8 -6 -5 -6 6 -1 11 2 17 5 13 3 -3 4 -12 1 -19z m15 -173 c3 -72 2 -104 -3
-80 -8 40 -12 212 -5 204 2 -2 5 -58 8 -124z m818 96 c0 -24 6 -31 43 -45 108
-41 162 -125 179 -280 13 -116 39 -204 82 -269 40 -63 209 -253 213 -240 2 5
7 29 11 54 l8 44 26 -50 c37 -72 58 -152 61 -229 1 -36 3 -66 5 -66 6 0 477
132 480 135 1 1 -5 77 -14 169 -15 145 -15 191 0 175 2 -2 11 -82 19 -177 8
-96 17 -175 19 -177 2 -2 95 19 206 47 190 48 203 53 209 77 3 14 0 141 -7
282 -14 281 -12 292 42 332 21 15 42 20 89 20 47 -1 86 8 156 33 58 21 112 34
142 34 59 0 104 15 156 51 22 16 56 32 75 36 l35 6 -27 -36 c-16 -19 -28 -37
-28 -39 0 -2 46 -3 103 -3 78 0 111 -4 142 -18 l40 -19 -42 -17 -42 -16 19
-30 c11 -17 18 -36 15 -42 -3 -9 7 -11 40 -6 25 3 45 3 45 1 0 -3 -7 -25 -15
-48 -8 -23 -15 -56 -15 -72 0 -16 -10 -42 -22 -59 -26 -34 -27 -87 -4 -121 19
-26 20 -83 5 -161 -15 -71 -45 -107 -91 -107 -32 0 -67 -14 -58 -23 3 -2 40
-18 84 -34 43 -17 74 -33 70 -36 -27 -16 -225 -66 -953 -243 -1024 -248 -1073
-261 -1088 -281 -7 -9 -13 -41 -13 -70 0 -44 5 -59 25 -78 13 -14 30 -25 37
-25 17 0 1267 304 1498 364 231 61 250 60 348 -6 174 -116 343 -240 356 -261
13 -20 31 -131 54 -349 5 -43 6 -78 3 -78 -2 0 -34 16 -70 36 l-66 36 43 -37
c23 -20 53 -55 67 -78 23 -40 50 -135 41 -144 -4 -4 -116 66 -291 183 -133 89
-177 101 -288 79 -39 -8 -306 -70 -592 -139 -521 -124 -1431 -339 -1492 -351
-32 -6 -33 -6 -32 27 0 18 4 55 8 81 7 43 5 52 -14 76 -21 24 -24 43 -34 211
-15 250 -16 240 12 240 12 0 33 7 46 17 l24 16 -6 184 -6 185 24 24 24 24 -24
0 c-14 0 -25 1 -25 3 -1 50 -90 1221 -94 1224 -2 2 -148 -32 -324 -76 -176
-45 -327 -81 -336 -81 -32 0 -16 29 22 40 20 5 170 52 332 104 162 52 303 95
313 95 12 1 17 -7 17 -28z m185 -2531 c9 -30 -4 -60 -26 -60 -10 0 -97 -18
-192 -41 -215 -51 -426 -95 -493 -104 -41 -5 -52 -3 -57 9 -8 19 41 35 408
131 160 42 295 78 300 80 28 10 54 3 60 -15z m35 -110 c4 0 25 -23 45 -51 24
-34 49 -56 74 -66 l38 -15 6 -106 c14 -250 104 -435 279 -574 46 -36 58 -29
58 34 0 20 4 39 9 43 10 6 19 -24 71 -220 17 -67 39 -126 48 -132 14 -12 14
-13 -1 -13 -29 0 -39 -48 -34 -148 3 -52 7 -96 10 -98 5 -6 980 196 989 205 7
7 -6 159 -16 168 -3 3 -138 -22 -298 -56 -281 -59 -520 -105 -583 -113 -24 -2
-30 1 -30 15 0 15 27 27 135 63 74 24 160 50 190 58 100 27 95 15 93 248 l-2
203 29 -214 c16 -118 31 -215 33 -217 3 -3 302 58 365 76 61 16 66 32 58 189
-3 75 -9 208 -12 296 -4 88 -11 163 -16 166 -4 3 10 25 31 48 33 35 45 42 63
37 55 -17 108 -18 154 -2 27 9 74 20 104 26 108 19 141 31 129 47 -15 17 -13
19 39 27 25 4 42 2 42 -4 0 -5 56 -11 138 -12 112 -2 132 -5 112 -14 -14 -7
-36 -17 -50 -23 -20 -9 -13 -10 40 -6 36 4 76 8 90 11 21 4 19 2 -10 -16 l-35
-21 47 3 47 3 12 -65 c7 -36 12 -71 12 -79 0 -7 11 -24 24 -37 29 -30 29 -50
-3 -109 l-25 -49 20 -15 c20 -16 20 -17 -29 -44 -62 -35 -70 -47 -30 -47 31 0
32 -1 25 -39 -5 -28 -3 -40 8 -44 12 -4 12 -14 1 -64 -7 -32 -16 -75 -19 -96
-10 -63 -59 -103 -155 -123 -44 -10 -76 -20 -71 -23 13 -8 163 -6 181 2 9 4
24 1 34 -6 17 -13 17 -16 3 -44 -15 -28 -26 -33 -134 -61 -172 -46 -1151 -252
-1718 -361 -189 -37 -212 -44 -234 -68 -19 -22 -22 -33 -16 -67 3 -23 10 -76
15 -120 5 -43 11 -80 12 -81 3 -3 1325 262 1618 324 107 22 209 41 226 41 39
0 119 -27 135 -46 20 -24 26 -16 34 42 5 46 9 53 21 43 8 -6 14 -27 14 -46 0
-80 28 -108 230 -226 64 -38 97 -82 104 -140 15 -129 38 -388 35 -391 -2 -2
-58 25 -124 60 -246 133 -310 166 -300 156 10 -10 257 -168 349 -224 24 -14
52 -38 61 -51 19 -30 33 -137 17 -137 -5 0 -106 54 -224 120 -152 86 -222 120
-246 120 -18 0 -455 -83 -970 -185 -1387 -273 -1354 -267 -1365 -256 -15 15
-21 106 -8 129 17 32 53 47 186 76 127 28 268 67 262 72 -2 2 -106 -19 -233
-45 -126 -27 -230 -48 -231 -47 -1 1 -11 107 -22 235 -14 155 -17 239 -11 251
6 10 26 24 45 30 23 8 37 19 41 35 3 13 1 119 -6 235 -6 116 -8 220 -5 231 4
10 18 26 33 34 l27 14 -31 1 c-27 0 -32 4 -38 31 -3 17 -6 55 -6 83 0 29 -18
272 -40 542 -45 550 -49 654 -24 679 9 9 23 14 31 11 8 -3 18 -6 23 -6z m-196
-2376 c10 -25 6 -86 -9 -129 -13 -39 -13 -38 -14 53 -1 85 8 115 23 76z m25
-271 c1 -17 5 -34 9 -37 5 -3 40 2 78 10 108 22 137 19 175 -18 17 -18 28 -33
23 -35 -5 -1 -126 -25 -268 -53 -320 -64 -467 -84 -478 -67 -10 16 -2 21 72
47 48 16 317 80 338 80 12 0 20 57 13 99 -6 40 -5 53 8 66 15 14 17 13 23 -22
4 -21 7 -52 7 -70z"/>
<path d="M7781 4780 c-249 -60 -455 -110 -456 -112 -2 -2 2 -32 9 -68 l11 -65
35 3 c41 4 822 197 863 214 39 15 57 44 47 76 -15 51 -22 62 -39 61 -9 0 -220
-49 -470 -109z"/>
<path d="M7174 4563 l-77 -68 37 -3 c54 -5 145 16 155 36 10 21 -4 75 -23 91
-11 9 -29 -2 -92 -56z"/>
<path d="M7419 1884 c-18 -19 -52 -43 -75 -54 -39 -19 -45 -20 -85 -6 l-42 15
25 -26 c35 -35 102 -40 188 -15 76 22 87 44 47 91 l-24 30 -34 -35z"/>
<path d="M9110 1203 c-82 -14 -337 -65 -349 -69 -8 -2 -12 -7 -9 -9 4 -4 482
67 528 79 21 5 -139 4 -170 -1z"/>
<path d="M8370 1059 c-129 -26 -236 -48 -238 -49 -2 0 -1 -4 2 -8 7 -12 479
82 484 96 5 15 29 19 -248 -39z"/>
<path d="M7698 926 c-139 -30 -187 -46 -141 -46 11 0 87 14 168 30 81 17 150
30 152 30 2 0 1 5 -2 10 -8 13 -3 13 -177 -24z"/>
<path d="M9176 11174 c-16 -16 -22 -44 -8 -44 4 1 32 14 62 30 l55 29 -47 1
c-30 0 -52 -6 -62 -16z"/>
<path d="M165 11036 l-160 -62 0 -39 c0 -38 2 -40 130 -132 99 -71 132 -100
136 -121 9 -39 10 -284 2 -280 -5 2 -36 18 -70 36 -34 17 -65 32 -69 32 -3 0
21 -27 55 -59 53 -51 61 -64 61 -95 l0 -37 -87 59 c-49 32 -105 68 -125 81
l-38 23 0 -308 0 -307 26 24 c42 39 56 78 62 168 5 76 8 89 32 113 15 15 44
30 66 34 21 4 55 15 75 25 45 22 44 16 64 409 16 314 19 501 8 499 -5 -1 -80
-29 -168 -63z"/>
<path d="M7707 9451 c-235 -71 -402 -129 -394 -137 2 -2 131 34 288 80 156 46
311 91 343 100 43 13 56 20 45 27 -8 5 -16 9 -19 8 -3 0 -121 -35 -263 -78z"/>
<path d="M11350 9374 c-132 -57 -757 -250 -1593 -492 -349 -101 -417 -127
-417 -155 0 -27 183 22 980 263 662 200 873 260 897 255 18 -3 55 -25 84 -48
29 -23 62 -50 75 -60 l24 -19 0 136 c0 75 -3 136 -7 136 -5 -1 -24 -8 -43 -16z"/>
<path d="M7220 9293 c-14 -2 -112 -30 -217 -61 -163 -47 -193 -59 -193 -75 0
-14 5 -17 18 -12 9 4 109 38 221 76 112 38 207 71 209 74 5 5 4 5 -38 -2z"/>
<path d="M113 9118 l-113 -41 0 -111 0 -111 74 -48 c121 -79 117 -70 117 -242
0 -81 -2 -150 -5 -152 -2 -2 -18 3 -35 11 -17 9 -43 21 -57 27 -30 11 -33 17
33 -71 18 -24 33 -49 33 -57 0 -22 -42 -15 -95 17 -27 16 -53 30 -57 30 -5 0
-8 -63 -8 -140 l0 -140 82 30 c126 46 126 46 138 230 22 343 41 772 35 791 -8
25 -11 25 -142 -23z"/>
<path d="M1925 8719 c-121 -31 -231 -60 -244 -64 -21 -5 7 -27 195 -153 158
-106 223 -155 233 -177 11 -22 14 -67 13 -174 -1 -79 -3 -146 -6 -148 -2 -2
-29 10 -60 28 -32 17 -59 29 -62 26 -3 -2 18 -24 46 -47 57 -48 83 -89 78
-126 l-3 -25 -65 42 c-184 119 -353 209 -391 209 -16 0 -98 -22 -182 -49 -83
-27 -390 -124 -682 -215 -837 -261 -795 -246 -795 -270 1 -14 27 -42 76 -81
41 -33 89 -71 105 -83 32 -26 37 -53 14 -72 -19 -16 -10 -30 18 -30 38 0 87
-38 107 -83 16 -33 20 -65 20 -157 0 -99 3 -122 24 -165 35 -74 55 -89 115
-82 62 7 136 45 180 91 27 28 54 42 120 62 103 31 131 45 194 94 40 32 61 40
135 53 48 9 121 19 163 23 l77 6 12 -38 c10 -29 11 -106 5 -325 -3 -158 -3
-289 2 -292 9 -5 500 135 532 152 33 18 61 13 73 -14 9 -21 9 -28 -3 -39 -17
-16 -115 -36 -178 -36 -34 0 -70 -12 -146 -49 -127 -62 -126 -62 -705 -231
-267 -78 -501 -151 -522 -162 -35 -20 -43 -48 -12 -48 7 0 143 39 301 86 577
171 878 256 909 256 37 0 80 -21 230 -113 135 -83 141 -85 146 -63 2 12 18 -2
53 -47 l50 -64 3 -169 4 -169 -44 6 c-39 5 -41 4 -24 -9 35 -25 56 -68 56
-111 0 -24 -3 -43 -7 -43 -3 0 -99 51 -212 113 -256 139 -236 137 -534 52
-190 -54 -210 -58 -218 -42 -15 27 -43 20 -90 -22 -42 -36 -64 -44 -484 -164
-242 -70 -464 -133 -492 -142 l-53 -16 0 -72 0 -73 62 -44 c58 -40 60 -44 42
-56 -62 -42 -62 -43 -12 -44 107 0 129 -37 148 -242 13 -149 21 -180 59 -240
28 -44 33 -47 61 -42 23 5 30 3 30 -10 0 -28 14 -18 85 65 94 110 115 124 230
154 55 14 132 41 170 59 89 42 134 53 275 66 63 5 127 13 143 16 l27 6 0 -366
c0 -201 3 -366 6 -366 9 0 192 47 416 106 239 63 276 63 252 0 -3 -9 -14 -16
-23 -16 -10 0 -54 -13 -99 -30 -64 -23 -99 -30 -158 -30 -60 0 -84 -5 -124
-25 -27 -13 -51 -29 -55 -35 -10 -16 -135 -51 -680 -191 -465 -119 -523 -136
-548 -161 -26 -25 -28 -33 -22 -71 4 -23 8 -43 9 -44 2 -3 546 137 964 248
144 38 280 69 301 69 39 0 55 -7 254 -114 78 -42 107 -54 107 -42 0 32 22 116
30 116 5 0 12 -17 15 -37 13 -86 27 -119 66 -154 l39 -37 0 -196 0 -196 -122
61 c-135 68 -141 51 -9 -25 82 -47 105 -67 119 -106 19 -53 23 -80 10 -80 -7
0 -112 48 -233 107 -218 107 -221 108 -290 107 -53 0 -115 -13 -252 -52 -193
-55 -209 -58 -246 -41 -26 12 -71 -5 -105 -39 -11 -11 -189 -61 -480 -136
l-462 -119 0 -147 0 -148 65 -57 65 -57 0 -127 c0 -154 14 -206 74 -288 31
-42 54 -63 84 -75 l41 -16 51 67 c64 87 139 157 194 182 24 10 74 23 112 28
78 12 120 25 214 70 67 32 139 39 215 22 17 -4 46 -3 65 2 29 8 37 6 52 -13
17 -20 18 -51 18 -387 0 -342 1 -364 18 -359 37 11 659 146 674 146 18 0 60
-48 53 -60 -2 -4 -35 -10 -71 -14 -45 -5 -78 -14 -98 -29 -26 -19 -49 -23
-151 -28 -128 -6 -154 -13 -219 -58 -45 -32 -218 -77 -791 -206 -397 -89 -421
-95 -440 -109 -18 -13 -58 -203 -45 -211 11 -7 476 96 885 196 414 101 468
108 525 71 34 -21 136 -72 145 -72 3 0 5 12 6 28 l1 27 11 -26 c20 -44 39 -60
112 -95 96 -47 148 -85 156 -114 4 -14 7 -111 8 -217 l1 -192 -137 60 c-75 32
-139 59 -142 59 -11 0 65 -47 152 -94 48 -26 94 -57 102 -69 14 -21 21 -108 9
-119 -6 -6 -114 40 -316 134 -62 28 -134 54 -171 60 -59 10 -75 8 -183 -20
-186 -47 -282 -64 -374 -66 -74 -1 -90 -4 -120 -26 -27 -20 -121 -45 -440
-121 l-405 -95 -3 -165 c-2 -90 0 -201 3 -246 l7 -83 924 0 924 0 0 93 0 93
108 24 107 25 6 245 c3 135 6 246 7 248 1 2 17 9 34 17 l33 14 -32 1 -33 0 1
498 c0 529 9 766 27 784 16 16 79 -4 122 -41 l35 -29 11 -224 c10 -211 12
-227 39 -285 18 -42 46 -80 84 -115 54 -52 81 -66 184 -103 67 -24 77 -48 76
-182 0 -59 -4 -148 -8 -197 -5 -71 -4 -89 8 -94 13 -5 235 40 632 127 124 28
176 43 186 57 14 19 18 129 5 137 -4 3 -162 -26 -352 -64 -189 -38 -348 -69
-352 -69 -4 0 -8 6 -8 14 0 8 30 25 73 42 39 15 115 44 167 64 l95 36 3 237
c1 147 6 237 12 237 6 0 10 -93 10 -250 0 -137 4 -250 8 -250 5 0 78 16 163
35 111 25 158 40 170 54 13 16 17 65 23 302 8 306 12 330 63 367 18 13 106 40
219 68 104 26 191 49 194 51 2 2 -2 8 -10 13 -18 11 -12 13 88 33 l73 15 -23
-25 -23 -25 30 7 c116 27 117 27 133 82 11 37 17 43 60 58 89 31 96 37 104 85
12 79 8 497 -7 785 -8 154 -15 359 -15 456 0 131 -4 189 -16 229 -12 40 -13
59 -5 77 16 36 13 61 -9 73 -17 9 -28 5 -65 -21 -25 -18 -45 -36 -45 -40 0 -4
18 -22 41 -40 l41 -32 -28 -15 c-31 -16 -352 -105 -772 -213 -249 -64 -280
-70 -361 -68 -85 2 -91 1 -138 -29 -39 -26 -96 -43 -303 -93 -171 -41 -262
-68 -275 -80 -19 -19 -19 -19 0 -55 24 -45 74 -84 107 -84 43 0 233 44 779
182 l525 132 105 -59 c227 -128 369 -217 381 -238 13 -23 26 -407 14 -407 -4
0 -57 25 -118 56 -127 64 -129 52 -6 -23 61 -37 89 -61 106 -91 20 -36 30
-101 17 -114 -3 -3 -111 48 -240 114 -129 65 -247 118 -262 118 -14 0 -310
-67 -657 -148 -520 -123 -641 -148 -685 -144 -47 4 -64 0 -125 -31 -52 -26
-126 -49 -274 -83 -112 -25 -205 -44 -208 -42 -2 3 1 39 7 79 8 50 10 143 5
287 l-7 212 27 25 c15 14 49 29 80 35 37 8 59 19 68 33 12 18 16 147 21 687
l8 666 -26 29 c-24 28 -24 31 -10 59 24 46 53 136 44 136 -5 0 -122 -27 -260
-60 -139 -33 -254 -60 -256 -60 -3 0 -5 6 -5 13 0 18 551 200 565 186 7 -7 -1
-19 -25 -39 l-35 -29 66 6 c59 5 68 3 86 -16 23 -25 41 -139 52 -338 7 -109
11 -129 40 -188 29 -58 173 -265 185 -265 3 0 21 29 41 65 20 36 40 65 45 65
19 0 33 -117 36 -304 2 -109 5 -201 8 -203 3 -4 479 113 769 188 l38 10 -7 57
c-3 31 -8 58 -9 60 -1 1 -157 -34 -346 -78 -189 -44 -349 -80 -356 -80 -7 0
-13 4 -13 9 0 12 172 87 235 102 65 15 102 34 115 58 6 12 10 100 10 215 0
168 2 196 15 196 13 0 15 -31 15 -221 l0 -221 23 6 c12 4 78 20 147 37 69 17
133 38 142 47 15 15 18 49 21 288 3 263 4 273 28 320 22 45 31 53 119 96 55
27 184 74 306 112 282 87 264 79 264 117 0 39 45 83 97 96 25 6 42 17 50 33
33 66 -1 1412 -37 1471 -5 7 -32 -7 -84 -46 -42 -31 -73 -61 -70 -66 2 -5 24
-6 47 -3 23 3 52 2 65 -3 23 -9 23 -9 5 -31 -20 -25 -28 -27 -643 -208 -403
-119 -428 -125 -487 -119 -51 5 -68 3 -105 -15 -23 -12 -50 -29 -59 -37 -16
-14 -268 -85 -419 -118 -98 -22 -120 -36 -120 -78 0 -17 4 -37 8 -43 5 -7 218
48 667 172 363 101 674 183 692 183 32 1 103 -38 381 -211 l112 -70 0 -189 c0
-125 -4 -189 -10 -189 -6 0 -25 7 -41 16 -45 23 -45 11 -1 -25 46 -36 65 -74
60 -124 l-3 -36 -125 71 c-69 39 -165 93 -214 121 -53 30 -105 52 -130 54 -33
4 -145 -23 -502 -120 -703 -192 -1043 -284 -1227 -332 l-168 -44 8 32 c4 18 6
138 4 268 -4 275 -7 265 98 294 33 10 67 25 75 34 11 13 16 92 26 411 7 217
14 463 17 547 3 88 0 187 -6 237 -9 63 -9 97 -1 127 6 23 8 45 3 50 -4 4 -113
-21 -242 -56 -129 -36 -238 -62 -243 -59 -19 12 36 36 219 100 246 85 252 87
354 69 46 -8 85 -15 85 -15 1 0 4 -66 7 -147 6 -170 24 -247 91 -388 41 -88
80 -134 133 -158 36 -16 59 12 66 79 6 58 12 72 24 60 4 -3 13 -120 20 -258 7
-138 15 -253 16 -255 5 -4 760 199 770 207 7 6 -9 68 -22 82 -3 3 -154 -33
-334 -81 -180 -49 -330 -84 -333 -79 -3 4 5 12 18 17 13 5 79 30 148 56 164
61 169 67 172 193 l2 97 5 -97 c8 -139 11 -141 143 -100 57 18 111 32 121 32
10 0 29 11 42 25 l25 24 0 295 0 294 78 30 c42 16 202 76 355 133 l279 104 -6
45 c-2 25 0 61 7 80 14 39 67 80 106 80 57 0 55 -33 41 601 -6 321 -13 585
-15 587 -3 3 -618 -198 -625 -205 -3 -3 15 -2 40 3 81 14 119 8 169 -27 25
-18 119 -84 209 -147 l162 -114 0 -174 c0 -96 -3 -174 -6 -174 -4 0 -32 14
-63 31 l-56 32 63 -65 c52 -53 65 -73 69 -107 3 -22 3 -41 -1 -41 -4 0 -86 48
-184 107 -219 132 -253 147 -303 139 -36 -6 -595 -169 -994 -290 -154 -47
-182 -53 -194 -41 -12 12 -20 10 -56 -15 -26 -18 -122 -54 -269 -99 -125 -39
-231 -71 -235 -71 -5 0 -12 108 -16 239 -9 296 -12 285 103 325 l82 28 0 529
c0 498 -1 529 -17 528 -10 -1 -117 -28 -238 -60z m286 -1831 c-24 -10 -46 -17
-48 -14 -2 2 -1 20 2 40 l7 35 42 -21 41 -21 -44 -19z m-199 -4740 c67 3 98
-10 98 -42 0 -9 -87 -32 -262 -70 -145 -31 -271 -59 -280 -62 -13 -4 -18 0
-18 15 0 15 10 23 38 30 20 6 105 30 187 54 l150 43 4 39 c3 35 5 37 11 15 6
-24 9 -25 72 -22z"/>
<path d="M11380 8731 c0 -5 5 -13 10 -16 6 -3 10 -2 10 4 0 5 -4 13 -10 16 -5
3 -10 2 -10 -4z"/>
<path d="M4196 8491 c-33 -33 -57 -63 -54 -67 9 -9 104 24 118 41 8 10 9 26 4
50 l-9 36 -59 -60z"/>
<path d="M390 8396 c0 -18 106 -80 120 -71 19 12 10 24 -44 54 -59 34 -76 38
-76 17z"/>
<path d="M3015 8020 c-27 -16 -80 -42 -117 -56 -40 -16 -68 -33 -68 -42 0 -9
6 -12 15 -8 9 3 97 31 195 63 99 31 180 60 180 65 0 4 -35 8 -77 8 -68 0 -84
-4 -128 -30z"/>
<path d="M68 7087 l-68 -21 0 -175 0 -176 47 -35 c58 -43 62 -58 62 -252 l1
-137 -55 19 c-30 10 -55 16 -55 11 0 -4 18 -25 40 -46 30 -30 40 -47 40 -71 0
-42 -12 -49 -50 -29 l-30 16 0 -125 0 -125 29 9 c43 12 69 28 81 50 9 16 33
395 55 840 3 63 8 143 11 176 4 49 2 65 -11 78 -19 19 -12 19 -97 -7z"/>
<path d="M11215 6975 c-88 -23 -180 -48 -204 -54 l-43 -12 7 -47 c12 -86 -21
-88 388 19 l37 10 0 64 c0 46 -4 65 -12 64 -7 -1 -85 -20 -173 -44z"/>
<path d="M10850 6645 c-294 -80 -690 -184 -880 -232 -375 -95 -397 -104 -384
-160 4 -16 15 -37 25 -48 17 -18 23 -18 81 -7 35 7 272 67 528 133 256 67 595
154 755 195 159 41 320 84 357 95 l68 20 0 74 c0 41 -3 75 -7 74 -5 0 -249
-65 -543 -144z"/>
<path d="M2440 5830 c-11 -11 -20 -28 -20 -38 0 -10 -11 -25 -25 -32 -33 -18
-32 -23 10 -43 51 -24 103 -21 166 11 58 29 68 48 50 95 -10 26 -13 27 -86 27
-62 0 -79 -4 -95 -20z"/>
<path d="M13 4913 c-10 -4 -13 -137 -13 -620 0 -339 3 -613 7 -609 4 3 15 217
24 474 10 257 21 533 25 615 6 140 6 147 -12 146 -11 0 -25 -3 -31 -6z"/>
<path d="M11353 4276 l-41 -11 24 -77 c16 -52 30 -78 40 -78 21 0 25 18 22
101 l-3 75 -42 -10z"/>
<path d="M10633 3826 c-413 -94 -755 -174 -758 -178 -10 -10 46 -159 71 -187
30 -35 69 -33 249 13 222 56 1180 276 1202 276 1 0 3 56 3 125 0 69 -3 125 -7
124 -5 -1 -346 -78 -760 -173z"/>
<path d="M2531 3419 c-42 -38 -66 -53 -105 -61 -66 -15 -74 -22 -42 -43 41
-27 100 -21 183 20 l73 36 -25 50 c-14 27 -26 49 -28 49 -1 0 -26 -23 -56 -51z"/>
<path d="M11171 3181 c-93 -21 -167 -43 -169 -49 -3 -9 4 -11 20 -7 86 19 332
75 335 75 2 0 3 5 3 10 0 14 -3 13 -189 -29z"/>
<path d="M11230 929 c-80 -15 -334 -62 -565 -105 -231 -42 -426 -81 -432 -86
-19 -15 -16 -28 21 -117 19 -44 38 -97 42 -118 10 -57 30 -90 59 -97 15 -4
218 29 513 84 480 90 512 98 512 133 0 4 5 5 10 2 7 -4 10 53 10 164 0 131 -3
171 -12 170 -7 -1 -78 -14 -158 -30z"/>
<path d="M2514 822 c-34 -21 -85 -48 -113 -62 -28 -13 -51 -27 -51 -31 0 -12
84 -22 127 -14 55 9 127 47 131 68 4 20 -16 77 -27 77 -3 -1 -34 -18 -67 -38z"/>
<path d="M3970 92 c0 -12 182 -92 210 -92 16 0 -14 18 -83 50 -108 50 -127 56
-127 42z"/>
<path d="M11330 10 c-33 -7 -31 -7 18 -9 29 0 52 3 52 9 0 11 -17 11 -70 0z"/>
</g>
</svg>
